<svg width="460.6" height="460.6" xmlns="http://www.w3.org/2000/svg" xml:space="preserve" version="1.1">

 <g>
  <title>Layer 1</title>
  <g stroke="null" id="svg_1">
   <path stroke="null" d="m169.95899,104.36586l-0.31292,0c-26.5986,0 -50.85027,23.78228 -52.25843,51.00673c0.15646,0.78231 0.46939,1.72109 0.62585,2.5034c0.31292,1.56462 0.62585,3.44217 1.40816,4.22448c0.93877,1.09524 3.28571,1.87755 5.0068,1.87755c0.15646,0 0.31292,0 0.46939,0c2.03401,-0.15646 3.12925,-1.2517 3.7551,-6.57142c3.44217,-26.28568 15.64624,-38.48974 42.08837,-42.55776c6.10203,-0.93877 6.41496,-3.12925 6.10203,-5.94557c-0.31292,-2.97278 -1.40816,-4.53741 -6.88434,-4.53741z" fill="#49226B" class="st0" id="XMLID_226_"/>
   <path stroke="null" d="m366.31925,210.6038c-3.59863,-0.46939 -7.51019,-0.78231 -10.01359,2.34694c-0.78231,0.93877 -1.09524,1.87755 -0.93877,3.12925c0.46939,3.12925 1.72109,4.53741 7.82312,4.69387c15.48977,0.15646 23.46935,7.19727 25.97275,22.99997c1.09524,6.72788 4.06802,6.72788 5.47618,6.72788c0.15646,0 0.31292,0 0.46939,0c1.87755,-0.15646 5.16326,0 4.85033,-7.66666c-0.31292,-9.5442 -5.31972,-18.46256 -12.67345,-24.40813c-3.59863,-2.97278 -7.97958,-5.31972 -12.51699,-6.57142c-2.34694,-0.62585 -4.53741,-0.78231 -6.88434,-1.09524c-0.31292,0 -0.93877,-0.15646 -1.56462,-0.15646z" fill="#49226B" class="st0" id="XMLID_131_"/>
   <path stroke="null" d="m100.4897,269.43365c-15.64624,-2.5034 -21.27888,-7.97958 -23.93874,-23.93874c-0.78231,-4.85033 -2.65986,-5.78911 -5.63264,-5.78911c-0.15646,0 -0.31292,0 -0.31292,0c-1.09524,0 -4.69387,0.15646 -4.69387,6.57142c0,16.89793 16.11562,33.48294 33.17002,33.95233c0.15646,0 0.31292,0 0.62585,0c5.31972,0 6.10203,-2.34694 6.41496,-4.53741c0.31292,-3.28571 -0.46939,-5.47618 -5.63264,-6.25849z" fill="#49226B" class="st0" id="XMLID_163_"/>
   <g stroke="null" id="XMLID_52_">
    <path stroke="null" d="m106.27881,378.01852l-18.14963,0l0,18.46256l-8.29251,0l0,-43.653l8.29251,0l0,17.83671l18.14963,0l0,-17.83671l8.29251,0l0,43.653l-8.29251,0l0,-18.46256z" id="XMLID_53_"/>
    <path stroke="null" d="m147.58487,396.48108c-1.72109,0 -3.12925,-0.46939 -4.22448,-1.56462c-1.09524,-1.09524 -1.72109,-2.34694 -1.87755,-4.06802l-0.31292,0c-0.46939,2.19047 -1.72109,3.7551 -3.28571,4.85033c-1.72109,1.09524 -3.7551,1.56462 -6.25849,1.56462c-3.28571,0 -5.94557,-0.93877 -7.66666,-2.65986c-1.72109,-1.72109 -2.65986,-4.06802 -2.65986,-7.04081c0,-3.28571 1.2517,-5.78911 3.59863,-7.51019c2.34694,-1.56462 5.78911,-2.5034 10.32652,-2.5034l5.63264,0l0,-2.34694c0,-1.87755 -0.46939,-3.28571 -1.40816,-4.22448c-0.93877,-0.93877 -2.5034,-1.56462 -4.69387,-1.56462c-1.87755,0 -3.44217,0.46939 -4.53741,1.2517c-1.09524,0.78231 -2.19047,1.72109 -2.97278,2.97278l-4.69387,-4.22448c1.2517,-1.87755 2.81632,-3.44217 4.85033,-4.53741s4.69387,-1.72109 7.97958,-1.72109c4.38095,0 7.82312,0.93877 10.01359,2.97278c2.34694,2.03401 3.44217,4.85033 3.44217,8.60543l0,15.33331l3.28571,0l0,6.41496l-4.53741,0zm-13.14284,-5.0068c1.72109,0 3.28571,-0.46939 4.53741,-1.2517c1.2517,-0.78231 1.87755,-1.87755 1.87755,-3.44217l0,-4.22448l-5.16326,0c-4.22448,0 -6.25849,1.2517 -6.25849,3.91156l0,1.09524c0,1.2517 0.46939,2.34694 1.2517,2.97278c0.93877,0.62585 2.03401,0.93877 3.7551,0.93877z" id="XMLID_55_"/>
    <path stroke="null" d="m157.75493,396.48108l0,-32.54417l7.97958,0l0,5.47618l0.31292,0c0.62585,-1.72109 1.72109,-3.28571 3.12925,-4.38095c1.40816,-1.2517 3.44217,-1.72109 5.94557,-1.72109c3.44217,0 5.94557,1.09524 7.82312,3.28571c1.72109,2.19047 2.65986,5.31972 2.65986,9.38774l0,20.65303l-7.97958,0l0,-19.87072c0,-2.34694 -0.46939,-4.06802 -1.2517,-5.31972c-0.78231,-1.09524 -2.19047,-1.72109 -4.06802,-1.72109c-0.78231,0 -1.56462,0.15646 -2.34694,0.31292s-1.40816,0.62585 -2.03401,0.93877c-0.62585,0.46939 -1.09524,0.93877 -1.40816,1.56462c-0.31292,0.62585 -0.62585,1.40816 -0.62585,2.34694l0,21.59181l-8.13604,0z" id="XMLID_58_"/>
    <path stroke="null" d="m213.92491,391.0049l-0.31292,0c-0.62585,1.87755 -1.72109,3.44217 -3.28571,4.53741s-3.44217,1.72109 -5.63264,1.72109c-4.06802,0 -7.35373,-1.40816 -9.38774,-4.38095c-2.19047,-2.97278 -3.28571,-7.19727 -3.28571,-12.67345c0,-5.47618 1.09524,-9.70067 3.28571,-12.51699s5.31972,-4.38095 9.38774,-4.38095c2.19047,0 4.06802,0.62585 5.63264,1.72109c1.56462,1.09524 2.65986,2.65986 3.28571,4.53741l0.31292,0l0,-18.93195l7.97958,0l0,46.1564l-7.97958,0l0,-5.78911zm-6.72788,-0.31292c1.87755,0 3.44217,-0.46939 4.85033,-1.40816c1.2517,-0.93877 1.87755,-2.19047 1.87755,-3.91156l0,-10.32652c0,-1.56462 -0.62585,-2.81632 -1.87755,-3.7551c-1.2517,-0.93877 -2.97278,-1.40816 -4.85033,-1.40816c-2.03401,0 -3.7551,0.62585 -5.0068,2.03401s-1.87755,3.28571 -1.87755,5.63264l0,5.63264c0,2.34694 0.62585,4.22448 1.87755,5.63264c1.2517,1.09524 2.97278,1.87755 5.0068,1.87755z" id="XMLID_60_"/>
    <path stroke="null" d="m250.38064,363.93691l7.51019,0l-13.14284,38.48974c-0.46939,1.09524 -0.93877,2.19047 -1.40816,2.97278c-0.46939,0.78231 -1.09524,1.56462 -1.87755,2.03401c-0.78231,0.46939 -1.56462,0.93877 -2.5034,1.2517c-0.93877,0.31292 -2.19047,0.31292 -3.44217,0.31292l-4.85033,0l0,-6.41496l5.94557,0l1.56462,-4.53741l-11.73468,-34.10879l7.97958,0l5.63264,17.21086l2.19047,8.29251l0.31292,0l2.19047,-8.29251l5.63264,-17.21086z" id="XMLID_63_"/>
    <path stroke="null" d="m289.49623,378.01852l-18.14963,0l0,18.46256l-8.29251,0l0,-43.653l8.29251,0l0,17.83671l18.14963,0l0,-17.83671l8.29251,0l0,43.653l-8.29251,0l0,-18.46256z" id="XMLID_65_"/>
    <path stroke="null" d="m319.84993,397.26339c-2.34694,0 -4.38095,-0.46939 -6.25849,-1.2517c-1.87755,-0.78231 -3.44217,-1.87755 -4.69387,-3.44217s-2.34694,-3.28571 -2.97278,-5.47618c-0.78231,-2.03401 -1.09524,-4.53741 -1.09524,-7.04081c0,-2.65986 0.31292,-5.0068 1.09524,-7.04081c0.78231,-2.03401 1.72109,-3.91156 2.97278,-5.31972c1.2517,-1.40816 2.81632,-2.65986 4.69387,-3.44217c1.87755,-0.78231 3.91156,-1.2517 6.25849,-1.2517c2.34694,0 4.38095,0.46939 6.25849,1.2517c1.87755,0.78231 3.44217,1.87755 4.85033,3.44217c1.2517,1.40816 2.34694,3.28571 2.97278,5.31972c0.78231,2.03401 1.09524,4.38095 1.09524,7.04081c0,2.65986 -0.31292,5.0068 -1.09524,7.04081c-0.78231,2.03401 -1.72109,3.91156 -2.97278,5.47618c-1.2517,1.56462 -2.97278,2.65986 -4.85033,3.44217c-1.87755,0.78231 -3.91156,1.2517 -6.25849,1.2517zm0,-6.41496c2.19047,0 3.7551,-0.62585 5.0068,-1.87755c1.2517,-1.2517 1.87755,-3.12925 1.87755,-5.63264l0,-6.10203c0,-2.5034 -0.62585,-4.38095 -1.87755,-5.63264c-1.2517,-1.2517 -2.81632,-1.87755 -5.0068,-1.87755c-2.03401,0 -3.7551,0.62585 -5.0068,1.87755c-1.2517,1.2517 -1.87755,3.12925 -1.87755,5.63264l0,6.10203c0,2.5034 0.62585,4.38095 1.87755,5.63264c1.2517,1.2517 2.97278,1.87755 5.0068,1.87755z" id="XMLID_67_"/>
    <path stroke="null" d="m351.76825,397.26339c-3.12925,0 -5.78911,-0.46939 -7.82312,-1.56462c-2.19047,-1.09524 -4.06802,-2.5034 -5.63264,-4.38095l4.85033,-4.69387c1.2517,1.40816 2.5034,2.5034 3.91156,3.28571c1.40816,0.78231 3.12925,1.2517 5.0068,1.2517c1.87755,0 3.28571,-0.31292 4.22448,-0.93877c0.78231,-0.62585 1.2517,-1.56462 1.2517,-2.81632c0,-0.93877 -0.31292,-1.72109 -0.93877,-2.34694s-1.56462,-0.93877 -3.12925,-1.09524l-3.28571,-0.46939c-3.59863,-0.46939 -6.25849,-1.40816 -8.13604,-2.97278c-1.87755,-1.56462 -2.81632,-3.91156 -2.81632,-6.88434c0,-1.56462 0.31292,-2.97278 0.93877,-4.22448c0.62585,-1.2517 1.40816,-2.34694 2.5034,-3.28571c1.09524,-0.93877 2.34694,-1.56462 3.91156,-2.03401s3.28571,-0.78231 5.16326,-0.78231c1.56462,0 2.97278,0.15646 4.22448,0.31292c1.2517,0.15646 2.34694,0.62585 3.28571,0.93877c0.93877,0.46939 1.87755,0.93877 2.81632,1.56462c0.78231,0.62585 1.72109,1.40816 2.5034,2.19047l-4.69387,4.69387c-0.93877,-0.93877 -2.03401,-1.87755 -3.44217,-2.5034c-1.40816,-0.62585 -2.81632,-0.93877 -4.38095,-0.93877c-1.72109,0 -2.97278,0.31292 -3.7551,0.93877c-0.78231,0.62585 -1.09524,1.40816 -1.09524,2.5034c0,1.09524 0.31292,1.87755 0.93877,2.5034c0.62585,0.62585 1.72109,0.93877 3.28571,1.2517l3.28571,0.46939c7.04081,0.93877 10.48298,4.22448 10.48298,9.5442c0,1.56462 -0.31292,2.97278 -0.93877,4.38095c-0.62585,1.2517 -1.56462,2.5034 -2.65986,3.44217c-1.09524,0.93877 -2.5034,1.72109 -4.22448,2.19047c-1.72109,0.15646 -3.59863,0.46939 -5.63264,0.46939z" id="XMLID_70_"/>
    <path stroke="null" d="m381.96549,396.48108c-2.81632,0 -4.85033,-0.78231 -6.25849,-2.19047s-2.19047,-3.44217 -2.19047,-6.10203l0,-17.83671l-4.85033,0l0,-6.41496l2.5034,0c1.2517,0 2.03401,-0.31292 2.5034,-0.78231c0.46939,-0.62585 0.62585,-1.40816 0.62585,-2.5034l0,-5.63264l7.19727,0l0,8.91835l6.72788,0l0,6.41496l-6.72788,0l0,19.71426l6.25849,0l0,6.41496l-5.78911,0z" id="XMLID_72_"/>
   </g>
   <g stroke="null" id="XMLID_29_">
    <path stroke="null" d="m133.03387,422.14091l8.44897,0c1.56462,0 2.97278,0.31292 4.22448,0.78231c1.2517,0.46939 2.34694,1.2517 3.12925,2.19047c0.93877,0.93877 1.56462,2.19047 2.03401,3.7551c0.46939,1.56462 0.78231,3.28571 0.78231,5.31972c0,2.03401 -0.31292,3.7551 -0.78231,5.31972c-0.46939,1.56462 -1.09524,2.81632 -2.03401,3.7551c-0.93877,0.93877 -1.87755,1.72109 -3.12925,2.19047c-1.2517,0.46939 -2.65986,0.78231 -4.22448,0.78231l-8.44897,0l0,-24.0952zm8.44897,20.65303c1.72109,0 3.28571,-0.62585 4.38095,-1.72109c1.09524,-1.09524 1.72109,-2.81632 1.72109,-5.0068l0,-3.91156c0,-2.19047 -0.62585,-3.7551 -1.72109,-5.0068c-1.09524,-1.09524 -2.5034,-1.72109 -4.38095,-1.72109l-4.53741,0l0,17.21086l4.53741,0l0,0.15646z" fill="#49226B" class="st0" id="XMLID_30_"/>
    <path stroke="null" d="m159.78894,446.23611l-5.63264,-24.0952l3.91156,0l2.5034,11.57821l1.72109,7.97958l0.15646,0l1.87755,-7.97958l2.81632,-11.57821l4.38095,0l2.81632,11.57821l1.87755,7.97958l0.15646,0l1.72109,-7.97958l2.5034,-11.57821l3.7551,0l-5.94557,24.0952l-4.38095,0l-3.12925,-12.36053l-1.72109,-7.35373l0,0l-1.87755,7.35373l-3.12925,12.36053l-4.38095,0z" fill="#49226B" class="st0" id="XMLID_33_"/>
    <path stroke="null" d="m194.21066,446.54904c-1.2517,0 -2.5034,-0.15646 -3.44217,-0.62585s-1.87755,-1.09524 -2.5034,-1.87755s-1.2517,-1.87755 -1.56462,-2.97278c-0.31292,-1.09524 -0.62585,-2.5034 -0.62585,-3.91156s0.15646,-2.65986 0.62585,-3.91156c0.31292,-1.09524 0.93877,-2.19047 1.56462,-2.97278s1.56462,-1.40816 2.5034,-1.87755c0.93877,-0.46939 2.19047,-0.62585 3.44217,-0.62585c1.2517,0 2.5034,0.15646 3.44217,0.62585c0.93877,0.46939 1.87755,1.09524 2.5034,1.87755s1.09524,1.72109 1.56462,2.81632s0.46939,2.19047 0.46939,3.44217l0,1.40816l-12.36053,0l0,0.62585c0,1.40816 0.46939,2.5034 1.2517,3.44217c0.78231,0.93877 2.03401,1.2517 3.44217,1.2517c1.09524,0 2.03401,-0.31292 2.81632,-0.78231c0.78231,-0.46939 1.40816,-1.09524 1.87755,-1.87755l2.19047,2.19047c-0.62585,1.09524 -1.56462,2.03401 -2.81632,2.65986c-1.2517,0.78231 -2.65986,1.09524 -4.38095,1.09524zm0,-15.8027c-0.62585,0 -1.2517,0.15646 -1.72109,0.31292c-0.46939,0.15646 -0.93877,0.62585 -1.40816,0.93877c-0.31292,0.46939 -0.62585,0.93877 -0.93877,1.40816c-0.15646,0.62585 -0.31292,1.2517 -0.31292,1.87755l0,0.31292l8.29251,0l0,-0.31292c0,-1.40816 -0.31292,-2.5034 -1.09524,-3.28571c-0.62585,-0.78231 -1.56462,-1.2517 -2.81632,-1.2517z" fill="#49226B" class="st0" id="XMLID_35_"/>
    <path stroke="null" d="m206.25826,420.73275l3.7551,0l0,10.48298l0.15646,0c0.31292,-1.09524 1.09524,-1.87755 1.87755,-2.5034s1.87755,-0.93877 3.12925,-0.93877c2.34694,0 4.06802,0.78231 5.31972,2.5034c1.2517,1.56462 1.87755,3.91156 1.87755,6.88434c0,2.97278 -0.62585,5.31972 -1.87755,6.88434c-1.2517,1.56462 -2.97278,2.5034 -5.31972,2.5034c-1.2517,0 -2.19047,-0.31292 -3.12925,-0.93877c-0.93877,-0.62585 -1.56462,-1.40816 -1.87755,-2.5034l-0.15646,0l0,2.97278l-3.7551,0l0,-25.3469zm7.82312,22.68704c1.2517,0 2.34694,-0.46939 3.12925,-1.2517c0.78231,-0.78231 1.09524,-1.87755 1.09524,-3.28571l0,-3.12925c0,-1.40816 -0.31292,-2.5034 -1.09524,-3.28571s-1.87755,-1.2517 -3.12925,-1.2517c-1.09524,0 -2.03401,0.31292 -2.81632,0.78231s-1.09524,1.2517 -1.09524,2.19047l0,6.10203c0,0.93877 0.31292,1.72109 1.09524,2.19047s1.72109,0.93877 2.81632,0.93877z" fill="#49226B" class="st0" id="XMLID_38_"/>
    <path stroke="null" d="m240.83644,444.04564l0,-6.88434l-6.25849,0l0,-3.12925l6.25849,0l0,-6.88434l3.44217,0l0,6.88434l6.25849,0l0,3.12925l-6.25849,0l0,6.88434l-3.44217,0z" fill="#49226B" class="st0" id="XMLID_42_"/>
    <path stroke="null" d="m269.46905,446.23611l0,-9.38774l-8.13604,-14.70746l4.38095,0l5.78911,10.63944l0.15646,0l5.78911,-10.63944l4.22448,0l-8.29251,14.551l0,9.5442l-3.91156,0z" fill="#49226B" class="st0" id="XMLID_45_"/>
    <path stroke="null" d="m289.96562,446.54904c-1.2517,0 -2.34694,-0.15646 -3.44217,-0.62585c-1.09524,-0.46939 -1.87755,-1.09524 -2.65986,-1.87755c-0.78231,-0.78231 -1.2517,-1.87755 -1.72109,-2.97278c-0.31292,-1.09524 -0.62585,-2.5034 -0.62585,-3.91156s0.15646,-2.65986 0.62585,-3.91156c0.46939,-1.09524 0.93877,-2.19047 1.72109,-2.97278c0.78231,-0.78231 1.56462,-1.40816 2.65986,-1.87755c1.09524,-0.46939 2.19047,-0.62585 3.44217,-0.62585s2.34694,0.15646 3.44217,0.62585c1.09524,0.46939 1.87755,1.09524 2.65986,1.87755c0.78231,0.78231 1.2517,1.87755 1.72109,2.97278c0.31292,1.09524 0.62585,2.5034 0.62585,3.91156s-0.15646,2.65986 -0.62585,3.91156c-0.46939,1.09524 -0.93877,2.19047 -1.72109,2.97278c-0.78231,0.78231 -1.56462,1.40816 -2.65986,1.87755c-1.09524,0.46939 -2.19047,0.62585 -3.44217,0.62585zm0,-3.12925c1.2517,0 2.34694,-0.46939 3.12925,-1.2517c0.78231,-0.78231 1.09524,-2.03401 1.09524,-3.59863l0,-2.97278c0,-1.56462 -0.31292,-2.81632 -1.09524,-3.59863s-1.87755,-1.2517 -3.12925,-1.2517c-1.2517,0 -2.34694,0.46939 -3.12925,1.2517s-1.09524,2.03401 -1.09524,3.59863l0,2.97278c0,1.56462 0.31292,2.81632 1.09524,3.59863c0.78231,0.93877 1.87755,1.2517 3.12925,1.2517z" fill="#49226B" class="st0" id="XMLID_47_"/>
    <path stroke="null" d="m313.27851,443.26333l0,0c-0.31292,0.46939 -0.46939,0.78231 -0.78231,1.2517c-0.31292,0.46939 -0.62585,0.78231 -0.93877,1.09524s-0.93877,0.62585 -1.40816,0.78231s-1.2517,0.31292 -1.87755,0.31292c-1.87755,0 -3.28571,-0.62585 -4.38095,-1.72109c-1.09524,-1.2517 -1.56462,-2.97278 -1.56462,-5.16326l0,-11.42175l3.7551,0l0,10.95237c0,2.81632 1.09524,4.22448 3.44217,4.22448c0.46939,0 0.93877,0 1.40816,-0.15646c0.46939,-0.15646 0.93877,-0.31292 1.2517,-0.62585c0.31292,-0.31292 0.62585,-0.62585 0.78231,-0.93877c0.15646,-0.31292 0.31292,-0.78231 0.31292,-1.40816l0,-12.0476l3.7551,0l0,17.83671l-3.7551,0l0,-2.97278z" fill="#49226B" class="st0" id="XMLID_50_"/>
   </g>
   <g stroke="null" id="XMLID_79_">
    <g stroke="null" id="XMLID_41_">
     <path stroke="null" fill="#000000" d="m202.03377,137.8488l66.96589,-120.00663c1.2517,-2.19047 3.44217,-3.44217 5.94557,-3.44217l27.22445,0c2.34694,0 4.53741,1.2517 5.78911,3.12925l15.64624,24.0952c1.40816,2.03401 1.40816,4.69387 0.31292,6.88434l-12.98638,23.78228c-2.5034,4.53741 0.78231,10.17005 5.94557,10.17005l0,0c2.5034,0 4.85033,-1.40816 5.94557,-3.59863l12.36053,-22.37412c1.2517,-2.19047 3.44217,-3.59863 5.94557,-3.59863l29.72785,0c2.34694,0 4.69387,1.2517 5.94557,3.44217l14.23807,24.25167c1.2517,2.03401 1.2517,4.69387 0.15646,6.72788l-65.71419,120.47602c-1.2517,2.19047 -3.44217,3.59863 -5.94557,3.59863l-28.63261,0c-2.34694,0 -4.53741,-1.2517 -5.78911,-3.12925l-15.64624,-24.56459c-1.40816,-2.19047 -1.40816,-4.85033 -0.15646,-7.04081l12.98638,-23.31289c2.5034,-4.53741 -0.78231,-10.17005 -5.94557,-10.17005l-2.03401,0c-2.5034,0 -4.85033,1.40816 -6.10203,3.59863l-10.63944,20.34011c-1.2517,2.19047 -3.44217,3.59863 -6.10203,3.59863l-29.25846,0c-2.34694,0 -4.53741,-1.2517 -5.78911,-3.28571l-14.08161,-22.8435c-1.40816,-1.87755 -1.40816,-4.53741 -0.31292,-6.72788z" id="XMLID_44_"/>
    </g>
    <path stroke="null" d="m212.51675,143.48145c1.87755,1.56462 0,-0.15646 7.66666,12.20406l3.59863,5.78911c0.31292,0.46939 0.93877,0.78231 1.56462,0.78231l0,0c0.78231,0 6.41496,0 12.0476,0c3.44217,0 6.72788,0.46939 9.23128,0.46939l-10.95237,-19.08841l-23.15643,0l0,-0.15646z" fill="#FFFFFF" class="st1" id="XMLID_87_"/>
    <path stroke="null" d="m249.44187,110.62435c0.62585,-1.09524 1.72109,-1.72109 2.81632,-1.72109c0,0 0,0 0.15646,0l83.70736,0c-1.2517,-3.12925 -2.65986,-5.0068 -4.53741,-8.13604c-2.34694,-4.06802 -5.16326,-8.60543 -6.57142,-11.10883c-4.38095,0 -50.53734,0.31292 -56.63937,0c-1.40816,0 -2.97278,-1.09524 -3.7551,-2.34694c-1.40816,-2.19047 1.09524,-5.16326 2.19047,-7.19727c1.40816,-2.5034 2.81632,-5.16326 4.22448,-7.66666c4.06802,-7.19727 7.97958,-14.23807 12.0476,-21.43534c3.7551,-6.72788 7.51019,-13.45576 11.26529,-20.02718c1.40816,-2.5034 2.81632,-5.0068 4.22448,-7.51019l-21.90473,0c-0.15646,0 -0.93877,0.62585 -1.40816,1.56462c-0.62585,1.2517 -52.25843,96.69374 -62.27202,112.33997l22.8435,0l13.61223,-26.75506z" fill="#FFFFFF" class="st1" id="XMLID_86_"/>
    <path stroke="null" d="m341.75466,105.30463l11.26529,-20.96596l-11.10883,-19.71426c-2.65986,4.85033 -9.07482,16.58501 -11.42175,20.96596c1.2517,2.19047 3.59863,6.25849 6.72788,11.57821c1.56462,2.97278 3.28571,5.78911 4.53741,8.13604z" fill="#FFFFFF" class="st1" id="XMLID_85_"/>
    <path stroke="null" d="m295.12888,82.46113l19.87072,-35.82988c0.31292,-0.62585 0.31292,-1.2517 0.15646,-1.56462c-0.46939,-0.93877 -5.63264,-9.23128 -9.07482,-15.02039l-2.03401,-3.28571l-31.13601,55.7006l22.21766,0z" fill="#FFFFFF" class="st1" id="XMLID_84_"/>
    <path stroke="null" d="m299.35336,141.29097c-3.7551,6.72788 -19.08841,34.26526 -19.87072,35.82988c-0.31292,0.62585 -0.31292,1.2517 -0.15646,1.56462c0.46939,0.78231 5.0068,8.13604 8.44897,13.92515c1.09524,1.72109 2.03401,3.28571 2.65986,4.53741l31.13601,-55.85706l-22.21766,0z" fill="#FFFFFF" class="st1" id="XMLID_83_"/>
    <path stroke="null" d="m370.54373,62.43394c-0.31292,-0.46939 -0.93877,-0.93877 -1.56462,-0.93877l-21.27888,-0.15646l10.95237,19.40133l23.15643,0c-1.72109,-1.56462 -4.69387,-7.51019 -7.19727,-11.73468c-1.87755,-3.28571 -3.7551,-5.94557 -4.06802,-6.57142z" fill="#FFFFFF" class="st1" id="XMLID_82_"/>
    <path stroke="null" d="m241.30583,139.25696l11.10883,19.71426c2.34694,-4.53741 7.82312,-14.70746 11.26529,-21.27888l-11.26529,-19.40133l-11.10883,20.96596z" fill="#FFFFFF" class="st1" id="XMLID_81_"/>
    <path stroke="null" d="m344.88391,112.18897c-0.46939,0.93877 -1.2517,2.03401 -2.19047,2.5034c-1.40816,0.78231 -11.73468,0.62585 -16.74147,0.62585c-2.5034,0 -5.0068,0 -7.66666,0c-2.81632,0 -5.63264,0 -8.29251,0c-2.97278,0 -5.78911,0 -8.76189,0c-2.97278,0 -5.78911,0 -8.76189,0c-2.81632,0 -5.63264,0 -8.44897,0c-2.65986,0 -5.16326,0 -7.82312,0c-2.34694,0 -4.53741,0 -6.88434,0c-1.87755,0 -3.7551,0 -5.47618,0c-1.2517,0 -2.5034,0 -3.91156,0c-0.62585,0 -1.2517,0 -1.87755,0c0,0 0,0 -0.15646,0l11.42175,19.24487c0,0 57.73461,-0.62585 57.73461,-0.62585c1.09524,0 2.19047,0.93877 2.81632,1.87755c0.62585,0.93877 0.62585,2.81632 0,3.7551l-34.42172,63.21079c3.12925,0 13.61223,0 13.61223,0l8.76189,0c0.15646,0 63.68018,-117.34677 63.68018,-117.34677l-22.8435,0c0.15646,0.15646 -13.76869,26.75506 -13.76869,26.75506z" fill="#FFFFFF" class="st1" id="XMLID_80_"/>
   </g>
   <path stroke="null" d="m389.94507,171.01882c-7.19727,-2.34694 -14.86392,-3.59863 -22.37412,-4.69387c-2.34694,4.22448 -4.69387,8.60543 -7.04081,12.82991c17.83671,-0.62585 35.04757,4.85033 48.34687,16.89793c18.3061,16.58501 25.50336,38.17682 20.65303,62.27202c-4.85033,24.25167 -20.18364,41.30606 -44.43531,49.44211c-6.25849,2.03401 -13.61223,3.12925 -22.21766,3.12925c-32.38771,0.15646 -65.40127,0.15646 -97.31959,0.15646c-23.78228,0 -47.72102,0 -71.5033,-0.15646c-30.04077,-0.15646 -61.17678,-0.15646 -91.68694,0.31292c-0.31292,0 -0.62585,0 -0.93877,0c-30.66662,0 -58.51692,-21.74827 -64.93188,-50.85027c-7.04081,-31.44893 6.25849,-59.61216 35.20403,-75.41486c2.19047,-1.2517 4.53741,-2.03401 6.88434,-2.81632c1.40816,-0.46939 2.81632,-0.93877 4.22448,-1.56462c3.91156,-1.72109 5.31972,-4.22448 4.53741,-7.97958c-7.66666,-33.48294 11.26529,-79.01349 55.23121,-94.50327c23.78228,-8.29251 48.97272,-5.63264 69.62575,5.78911l6.25849,-11.10883c-27.06799,-14.70746 -60.7074,-16.74147 -88.5577,-2.5034c-36.45573,18.61902 -55.07475,48.50333 -55.07475,88.87062c0,7.51019 -1.56462,12.51699 -9.85713,16.27209c-29.25846,13.61223 -48.03394,50.38088 -41.61899,81.82981c8.13604,40.68021 39.11559,66.18358 80.57812,66.4965c11.10883,0.15646 22.37412,0.15646 33.17002,0c6.72788,0 13.2993,0 20.02718,0c0.31292,0 4.53741,-0.31292 11.10883,-0.31292c92.31279,-0.15646 135.65287,-0.31292 139.2515,-0.31292c0.15646,0 0.46939,0 0.62585,0c5.47618,0 10.7959,0.31292 16.27209,0.31292c11.89114,0.15646 24.0952,0.46939 36.14281,-0.15646c12.36053,-0.62585 22.37412,-2.19047 30.66662,-5.0068c31.91832,-11.10883 52.41489,-40.52375 52.10197,-75.10193c0.15646,-32.07478 -21.90473,-61.80263 -53.35366,-72.12915z" fill="#49226B" class="st0" id="XMLID_123_"/>
  </g>
 </g>
</svg>