<?xml version="1.0" encoding="utf-8"?>
<!-- Generator: Adobe Illustrator 19.0.0, SVG Export Plug-In . SVG Version: 6.00 Build 0)  -->
<svg version="1.1" id="Layer_1" xmlns="http://www.w3.org/2000/svg" xmlns:xlink="http://www.w3.org/1999/xlink" x="0px" y="0px"
	 viewBox="0 0 94.3 94.3" style="enable-background:new 0 0 94.3 94.3;" xml:space="preserve">
<style type="text/css">
	.st0{fill:#142D51;}
	.st1{fill:none;stroke:#00B6FA;stroke-width:2.463;stroke-miterlimit:10;}
	.st2{clip-path:url(#XMLID_2_);fill:url(#XMLID_3_);}
	.st3{clip-path:url(#XMLID_4_);fill:url(#XMLID_10_);}
	.st4{clip-path:url(#XMLID_11_);fill:url(#XMLID_13_);}
	.st5{clip-path:url(#XMLID_30_);fill:url(#XMLID_31_);}
	.st6{clip-path:url(#XMLID_32_);fill:url(#XMLID_33_);}
	.st7{fill:#119FED;}
	.st8{fill:#E8E8E8;}
</style>
<path id="XMLID_59_" class="st0" fill="#142D51" d="M77.6,10.5l0,31.7c0,6.6,0.6,18.9-5,28.4c-7.2,12.1-20.3,21.3-33.1,22.4
	C26.7,91.8,13.6,82.6,6.4,70.5c-5.6-9.4-5-21.8-5-28.4V10.5H77.6z"/>
<path id="XMLID_58_" class="st1" stroke="#00B6FA" fill="none" d="M77.7,10.5l0,31.8c0,6.6,0.6,19-5.1,28.4C65.4,82.8,52.2,92,39.5,93.1
	C26.7,92,13.5,82.8,6.3,70.7c-5.6-9.5-5-21.8-5-28.4V10.5H77.7z"/>
<g id="XMLID_53_">
	<defs>
		<path id="XMLID_54_" d="M62.8,57c-0.4,2.2-7.7,17.7-21.8,20.2c-5.7,1-6.5,2.6-5.1,4.1c1.2,0.3,2.4,0.5,3.6,0.6
			c9.2-0.8,18.7-7.5,24-16.4c1.3-2.3,2.2-4.8,2.7-7.3c-0.9-1.1-1.9-2.1-2.6-2.1C63.2,56.1,63,56.3,62.8,57" fill="#01AAE4"/>
	</defs>
	<clipPath id="XMLID_2_">
		<use xlink:href="#XMLID_54_"  style="overflow:visible;"/>
	</clipPath>
	
		<linearGradient id="XMLID_3_" gradientUnits="userSpaceOnUse" x1="84.9448" y1="136.124" x2="86.3844" y2="136.124" gradientTransform="matrix(23.1773 0 0 -23.1773 -1933.4675 3224.0039)">
		<stop  offset="0" style="stop-color:#01AAE4"/>
		<stop  offset="1" style="stop-color:#1F96F4"/>
	</linearGradient>
	<rect id="XMLID_55_" x="34.5" y="56.1" class="st2" width="31.6" height="25.9"/>
</g>
<g id="XMLID_50_">
	<defs>
		<rect id="XMLID_51_" x="18.6" y="21.4" width="44" height="4.5" fill="#01AAE4"/>
	</defs>
	<clipPath id="XMLID_4_">
		<use xlink:href="#XMLID_51_"  style="overflow:visible;"/>
	</clipPath>
	
		<linearGradient id="XMLID_10_" gradientUnits="userSpaceOnUse" x1="85.9078" y1="136.2653" x2="87.3474" y2="136.2653" gradientTransform="matrix(30.5289 0 0 -30.5289 -2604.0601 4183.6895)">
		<stop  offset="0" style="stop-color:#01AAE4"/>
		<stop  offset="1" style="stop-color:#1F96F4"/>
	</linearGradient>
	<rect id="XMLID_52_" x="18.6" y="21.4" class="st3" width="44" height="4.5"/>
</g>
<g id="XMLID_47_">
	<defs>
		<path fill="#01AAE4" id="XMLID_48_" d="M11.8,21.4v16.5L58,72.5c2.1-2.1,3.9-4.4,5.4-7c2.1-3.5,3-7.6,3.4-11.4L23,21.4H11.8z"/>
	</defs>
	<clipPath id="XMLID_11_">
		<use xlink:href="#XMLID_48_"  style="overflow:visible;"/>
	</clipPath>
	
		<linearGradient id="XMLID_13_" gradientUnits="userSpaceOnUse" x1="87.8492" y1="135.5336" x2="89.2888" y2="135.5336" gradientTransform="matrix(68.2215 0 0 -68.2215 -6001.3062 9293.2627)">
		<stop  offset="0" style="stop-color:#01AAE4"/>
		<stop  offset="1" style="stop-color:#1F96F4"/>
	</linearGradient>
	<rect id="XMLID_49_" x="11.8" y="21.4" class="st4" width="54.9" height="51.1"/>
</g>
<g id="XMLID_44_">
	<defs>
		<path id="XMLID_45_" fill="#01AAE4" d="M29.9,21.4l37.1,27.8c0-1.7,0-3.3,0-4.6l0-23.3H29.9z"/>
	</defs>
	<clipPath id="XMLID_30_">
		<use xlink:href="#XMLID_45_"  style="overflow:visible;"/>
	</clipPath>
	
		<linearGradient id="XMLID_31_" gradientUnits="userSpaceOnUse" x1="88.1408" y1="135.3727" x2="89.5804" y2="135.3727" gradientTransform="matrix(78.4981 0 0 -78.4981 -6912.2217 10661.8379)">
		<stop  offset="0" style="stop-color:#01AAE4"/>
		<stop  offset="1" style="stop-color:#1F96F4"/>
	</linearGradient>
	<rect id="XMLID_46_" x="29.9" y="21.4" class="st5" width="37.2" height="27.8"/>
</g>
<g id="XMLID_41_">
	<defs>
		<path id="XMLID_42_" fill="#01AAE4" d="M11.8,44.7c0,4.8-0.4,13.9,3.7,20.8c5.2,8.9,14.7,15.6,24,16.4c5.3-0.5,10.7-2.9,15.3-6.5L11.8,43.3V44.7z
			"/>
	</defs>
	<clipPath id="XMLID_32_">
		<use xlink:href="#XMLID_42_"  style="overflow:visible;"/>
	</clipPath>
	
		<linearGradient id="XMLID_33_" gradientUnits="userSpaceOnUse" x1="88.0229" y1="135.5445" x2="89.4626" y2="135.5445" gradientTransform="matrix(82.1759 0 0 -82.1759 -7276.4463 11201.1162)">
		<stop  offset="0" style="stop-color:#01AAE4"/>
		<stop  offset="1" style="stop-color:#1F96F4"/>
	</linearGradient>
	<rect id="XMLID_43_" x="11.4" y="43.3" class="st6" width="43.3" height="38.7" fill="#01AAE4"/>
</g>

</svg>
