<?xml version="1.0" encoding="utf-8"?>
<svg viewBox="0 0 300 131" xmlns="http://www.w3.org/2000/svg">
  
  <path d="M64.4693347,0.00426083422 C51.4416167,0.151216137 39.3204129,4.14031348 29.1839753,10.8850401 L31.5700424,13.9067542 C41.4199607,7.42550362 53.2355149,3.69857801 65.9141053,3.84031597 C98.6412251,4.20596511 125.509263,30.4848775 126.564907,63.1967801 C127.708375,98.6356165 98.6347035,127.709288 63.195867,126.56495 C30.4843993,125.508872 4.20592163,98.6403991 3.84027249,65.913714 C3.69896931,53.2351236 7.42589492,41.4200042 13.9062759,31.5700859 L10.8849967,29.1840188 C4.13983522,39.3204564 0.151172659,51.4416602 0.00421735632,64.4693782 C-0.39795322,100.112561 28.0078981,129.611446 63.7141236,130.416657 C100.895554,131.255346 131.255737,100.895163 130.417048,63.7137323 C129.610968,28.0075068 100.112083,-0.398344521 64.4693347,0.00426083422" id="Fill-1" fill="#7F8C8D"/>
  <path d="M26.8541685,20.4603085 C26.8541685,23.9915836 23.9915836,26.8541685 20.4603085,26.8541685 C16.9290335,26.8541685 14.0664485,23.9915836 14.0664485,20.4603085 C14.0664485,16.9290335 16.9290335,14.0664485 20.4603085,14.0664485 C23.9915836,14.0664485 26.8541685,16.9290335 26.8541685,20.4603085" id="Fill-4" fill="#1ED660"/>
  <path d="M84.3982564,65.2168503 L84.3982564,84.3984303 L65.2171111,84.3984303 C54.623286,84.3984303 46.0355311,75.8102406 46.0355311,65.2168503 C46.0355311,54.6230251 54.623286,46.0352703 65.2171111,46.0352703 C75.8105015,46.0352703 84.3982564,54.6230251 84.3982564,65.2168503 M65.4588483,33.2488546 C47.6920391,33.1171166 33.2478111,47.4800409 33.2478111,65.2168503 C33.2478111,82.8727907 47.5607359,97.1857155 65.2171111,97.1857155 L97.1859764,97.1857155 L97.1859764,65.6181513 C97.1859764,47.9904714 83.0860933,33.3792883 65.4588483,33.2488546" id="Fill-6" fill="#1ED660"/>
  <path d="M 285.905 85.611 L 285.905 66.14 C 285.905 55.211 277.163 46.126 266.235 46.072 C 255.256 46.018 246.312 54.961 246.366 65.941 C 246.42 76.87 255.505 85.611 266.434 85.611 L 285.905 85.611 Z M 266.135 32.892 C 284.333 32.892 299.085 47.644 299.085 65.842 L 299.085 98.791 L 266.135 98.791 C 247.937 98.791 233.186 84.039 233.186 65.842 C 233.186 47.644 247.937 32.892 266.135 32.892 Z" id="Fill-1" style="fill: rgb(30, 214, 96);" fill="#1ED660"/>
  <polygon id="Fill-3" points="213.416 98.791 226.596 98.791 226.596 32.892 213.416 32.892" style="fill: rgb(30, 214, 96);"/>
  <path d="M 226.596 19.712 C 226.596 23.352 223.645 26.302 220.006 26.302 C 216.367 26.302 213.416 23.352 213.416 19.712 C 213.416 16.073 216.367 13.122 220.006 13.122 C 223.645 13.122 226.596 16.073 226.596 19.712" id="Fill-5" style="fill: rgb(30, 214, 96);" fill="#1ED660" />
  <path d="M 163.338 78.369 C 165.725 81.058 168.656 83.276 172.129 85.025 C 175.603 86.774 178.957 87.659 182.194 87.683 C 185.679 87.709 188.547 86.891 190.799 85.228 C 193.051 83.565 194.184 81.787 194.196 79.891 C 194.211 77.911 193.537 76.312 192.176 75.095 C 190.815 73.88 188.891 73.048 186.405 72.597 L 179.071 71.122 C 170.949 69.511 165.322 67.295 162.188 64.471 C 159.053 61.65 157.504 57.869 157.537 53.131 C 157.576 47.533 159.744 42.746 164.046 38.773 C 168.346 34.8 174.106 32.839 181.326 32.893 C 185.558 32.924 189.577 33.645 193.385 35.05 C 197.191 36.457 201.118 38.683 205.164 41.727 L 201.373 46.525 L 197.755 51.104 C 194.868 48.498 192.061 46.669 189.329 45.615 C 186.598 44.561 184.029 44.025 181.623 44.007 C 178.636 43.985 176.036 44.677 173.829 46.082 C 171.619 47.486 170.508 49.396 170.491 51.806 C 170.467 55.252 173.066 57.468 178.286 58.453 L 191.338 61.135 C 201.944 63.281 207.218 68.875 207.155 77.92 C 207.139 80.332 206.624 82.761 205.611 85.208 C 204.598 87.656 203.047 89.927 200.959 92.022 C 198.869 94.118 196.182 95.778 192.896 97.001 C 189.609 98.224 185.809 98.822 181.495 98.789 C 171.703 98.717 162.682 94.99 154.437 87.606 L 163.338 78.369 Z" id="Fill-6" style="fill: rgb(30, 214, 96);" fill="#1ED660" />
  <path d="M 212.6 32.87 H 226.991 V 98.69 H 212.6 V 32.87 Z" style="fill: rgb(30, 214, 96);" fill="#1ED660" />
</svg>